<?xml version="1.0" encoding="utf-8"?>
<!-- Generator: Adobe Illustrator 18.1.1, SVG Export Plug-In . SVG Version: 6.00 Build 0)  -->
<svg version="1.1" xmlns="http://www.w3.org/2000/svg" xmlns:xlink="http://www.w3.org/1999/xlink" x="0px" y="0px"
	 viewBox="0 0 960 550" enable-background="new 0 0 960 600" xml:space="preserve">
<g id="Connectors">
	<line fill="none" stroke="#000000" stroke-width="3" stroke-miterlimit="10" x1="235.5" y1="168" x2="235.5" y2="216"/>
	<line fill="none" stroke="#000000" stroke-width="3" stroke-miterlimit="10" x1="564.5" y1="272" x2="564.5" y2="320"/>
	<line fill="none" stroke="#000000" stroke-width="3" stroke-miterlimit="10" x1="352" y1="237.5" x2="457" y2="237.5"/>
	<line fill="none" stroke="#E32727" stroke-width="3" stroke-miterlimit="10" x1="470.5" y1="362" x2="470.5" y2="410"/>
	<line fill="none" stroke="#82B008" stroke-width="3" stroke-miterlimit="10" x1="658.5" y1="362" x2="658.5" y2="410"/>
</g>
<g id="Shapes">
	<path fill="#B8D283" stroke="#A0B76C" stroke-width="2" stroke-miterlimit="10" d="M360.4,176.1H110c-2.8,0-5-2.2-5-5V111
		c0-2.8,2.2-5,5-5h250.4c2.8,0,5,2.2,5,5v60.1C365.4,173.9,363.1,176.1,360.4,176.1z"/>
	<path fill="#A6C7E7" stroke="#839FBA" stroke-width="2" stroke-miterlimit="10" d="M360.4,272.9H110c-2.8,0-5-2.2-5-5v-60.1
		c0-2.8,2.2-5,5-5h250.4c2.8,0,5,2.2,5,5v60.1C365.4,270.7,363.1,272.9,360.4,272.9z"/>
	<path fill="#C5B7E1" stroke="#9A8CBB" stroke-width="2" stroke-miterlimit="10" d="M689.5,272.9H439.1c-2.8,0-5-2.2-5-5v-60.1
		c0-2.8,2.2-5,5-5h250.4c2.8,0,5,2.2,5,5v60.1C694.5,270.7,692.2,272.9,689.5,272.9z"/>
	<path fill="#C5B7E1" stroke="#9A8CBB" stroke-width="2" stroke-miterlimit="10" d="M531.7,474.3H281.4c-2.8,0-5-2.2-5-5v-60.1
		c0-2.8,2.2-5,5-5h250.4c2.8,0,5,2.2,5,5v60.1C536.7,472.1,534.5,474.3,531.7,474.3z"/>
	<path fill="#C5B7E1" stroke="#9A8CBB" stroke-width="2" stroke-miterlimit="10" d="M847.2,474.3H596.8c-2.8,0-5-2.2-5-5v-60.1
		c0-2.8,2.2-5,5-5h250.4c2.8,0,5,2.2,5,5v60.1C852.2,472.1,849.9,474.3,847.2,474.3z"/>
	<g>
		<path fill="#DFC973" stroke="#BCA95C" stroke-width="2" stroke-miterlimit="10" d="M689.5,370.1H439.1c-2.8,0-5-2.2-5-5V305
			c0-2.8,2.2-5,5-5h250.4c2.8,0,5,2.2,5,5v60.1C694.5,367.9,692.2,370.1,689.5,370.1z"/>
		<circle fill="#E42828" cx="470.2" cy="370.5" r="8.8"/>
		<circle fill="#8EB813" cx="658.2" cy="370.5" r="8.8"/>
	</g>
</g>
<g id="Type">
	<rect x="119.2" y="136.1" fill="none" width="232" height="31.9"/>
	<text transform="matrix(1 0 0 1 197.1758 149.0677)" opacity="0.6" font-family="'Helvetica'" font-size="18" font-weight="bold">Segment</text>
	<rect x="119.2" y="232.1" fill="none" width="232" height="31.9"/>
	<text transform="matrix(1 0 0 1 186.6684 245.0677)" opacity="0.6" font-family="'Helvetica'" font-size="18" font-weight="bold">Send Email</text>
	<rect x="448.5" y="232.1" fill="none" width="232" height="31.9"/>
	<text transform="matrix(1 0 0 1 506.98 245.0677)" opacity="0.6" font-family="'Helvetica'" font-size="18" font-weight="bold">Wait 2 Weeks</text>
	<rect x="448.5" y="330" fill="none" width="232" height="31.9"/>
	<text transform="matrix(1 0 0 1 522.0093 342.9419)" opacity="0.6" font-family="'Helvetica'" font-size="18" font-weight="bold">Opted-In?</text>
	<rect x="290.6" y="435" fill="none" width="232" height="31.9"/>
	<text transform="matrix(1 0 0 1 315.5547 447.9419)" opacity="0.6" font-family="'Helvetica'" font-size="18" font-weight="bold">Moved to Shared List</text>
	<rect x="606" y="435" fill="none" width="232" height="31.9"/>
	<text transform="matrix(1 0 0 1 642.0065 447.9419)" opacity="0.6" font-family="'Helvetica'" font-size="18" font-weight="bold">Move to Campaign</text>
</g>
</svg>
